<svg width="223" height="252" viewBox="0 0 223 252" fill="none" xmlns="http://www.w3.org/2000/svg">
<path d="M104.061 15.0383C95.7209 62.3403 93.2802 110.913 81.8196 157.692C78.3477 171.863 69.5903 186.078 53.6989 186.519C35.6753 187.02 24.0968 170.896 15.9279 156.909C2.10078 133.234 -2.75375 86.7396 25.347 70.9486C39.3947 63.0546 67.2852 72.4836 80.6914 77.6359C109.403 88.6702 136.308 106.536 167.215 111.492C207.655 117.975 230.51 60.3281 211.42 30.2998C201.652 14.9347 186.401 8.05689 169.036 4.99501C160.208 3.43833 152.967 2.8513 147.248 10.5381C121.566 45.0533 114.692 99.6752 118.875 140.849C122.395 175.496 125.944 214.803 140.209 247.163" stroke="#9D5A67" stroke-width="8" stroke-linecap="round"/>
</svg>
